<?xml version="1.0" standalone="no"?>
<!DOCTYPE svg PUBLIC "-//W3C//DTD SVG 1.1//EN" 
  "http://www.w3.org/Graphics/SVG/1.1/DTD/svg11.dtd">
<svg width="4267" height="4267" viewBox="0 0 4267 4267"
     xmlns="http://www.w3.org/2000/svg" version="1.1">
<desc>DemonRigged.blend, (Blender 4.0.2)</desc>
<polygon stroke="black" stroke-width="1" fill="rgb(204, 204, 204)" fill-opacity="0.25" points="1518.149,923.566 1536.806,750.385 1481.824,747.670 1460.250,924.497 " />
<polygon stroke="black" stroke-width="1" fill="rgb(204, 204, 204)" fill-opacity="0.25" points="1536.806,750.385 1550.023,565.508 1495.149,557.040 1481.824,747.670 " />
<polygon stroke="black" stroke-width="1" fill="rgb(204, 204, 204)" fill-opacity="0.25" points="1481.824,747.670 1495.149,557.040 1442.133,543.555 1430.236,740.140 " />
<polygon stroke="black" stroke-width="1" fill="rgb(204, 204, 204)" fill-opacity="0.25" points="1460.250,924.497 1481.824,747.670 1430.236,740.140 1406.577,920.579 " />
<polygon stroke="black" stroke-width="1" fill="rgb(204, 204, 204)" fill-opacity="0.25" points="1406.577,920.579 1430.236,740.140 1381.089,729.252 1356.543,912.703 " />
<polygon stroke="black" stroke-width="1" fill="rgb(204, 204, 204)" fill-opacity="0.25" points="1430.236,740.140 1442.133,543.555 1390.353,526.623 1381.089,729.252 " />
<polygon stroke="black" stroke-width="1" fill="rgb(204, 204, 204)" fill-opacity="0.25" points="1381.089,729.252 1390.353,526.623 1339.025,508.111 1333.251,716.215 " />
<polygon stroke="black" stroke-width="1" fill="rgb(204, 204, 204)" fill-opacity="0.25" points="1356.543,912.703 1381.089,729.252 1333.251,716.215 1309.217,901.488 " />
<polygon stroke="black" stroke-width="1" fill="rgb(204, 204, 204)" fill-opacity="0.25" points="1372.229,1627.805 1291.002,1632.242 1249.574,1822.785 1333.509,1817.407 " />
<polygon stroke="black" stroke-width="1" fill="rgb(204, 204, 204)" fill-opacity="0.25" points="1291.002,1632.242 1216.661,1631.712 1172.223,1821.879 1249.574,1822.785 " />
<polygon stroke="black" stroke-width="1" fill="rgb(204, 204, 204)" fill-opacity="0.25" points="1249.574,1822.785 1172.223,1821.879 1132.646,2022.715 1210.924,2024.484 " />
<polygon stroke="black" stroke-width="1" fill="rgb(204, 204, 204)" fill-opacity="0.25" points="1333.509,1817.407 1249.574,1822.785 1210.924,2024.484 1296.067,2018.177 " />
<polygon stroke="black" stroke-width="1" fill="rgb(204, 204, 204)" fill-opacity="0.25" points="1216.661,1631.712 1148.431,1623.931 1100.300,1812.787 1172.223,1821.879 " />
<polygon stroke="black" stroke-width="1" fill="rgb(204, 204, 204)" fill-opacity="0.25" points="1148.431,1623.931 1085.197,1605.114 1031.870,1792.554 1100.300,1812.787 " />
<polygon stroke="black" stroke-width="1" fill="rgb(204, 204, 204)" fill-opacity="0.25" points="1100.300,1812.787 1031.870,1792.554 988.469,1988.676 1059.556,2011.402 " />
<polygon stroke="black" stroke-width="1" fill="rgb(204, 204, 204)" fill-opacity="0.25" points="1172.223,1821.879 1100.300,1812.787 1059.556,2011.402 1132.646,2022.715 " />
<polygon stroke="black" stroke-width="1" fill="rgb(204, 204, 204)" fill-opacity="0.25" points="1132.646,2022.715 1059.556,2011.402 1017.497,2227.122 1089.099,2239.283 " />
<polygon stroke="black" stroke-width="1" fill="rgb(204, 204, 204)" fill-opacity="0.25" points="1059.556,2011.402 988.469,1988.676 947.685,2202.618 1017.497,2227.122 " />
<polygon stroke="black" stroke-width="1" fill="rgb(204, 204, 204)" fill-opacity="0.25" points="1017.497,2227.122 947.685,2202.618 902.638,2429.186 970.366,2453.304 " />
<polygon stroke="black" stroke-width="1" fill="rgb(204, 204, 204)" fill-opacity="0.25" points="1089.099,2239.283 1017.497,2227.122 970.366,2453.304 1039.920,2465.328 " />
<polygon stroke="black" stroke-width="1" fill="rgb(204, 204, 204)" fill-opacity="0.25" points="1296.067,2018.177 1210.924,2024.484 1166.284,2240.648 1251.145,2232.766 " />
<polygon stroke="black" stroke-width="1" fill="rgb(204, 204, 204)" fill-opacity="0.25" points="1210.924,2024.484 1132.646,2022.715 1089.099,2239.283 1166.284,2240.648 " />
<polygon stroke="black" stroke-width="1" fill="rgb(204, 204, 204)" fill-opacity="0.25" points="1166.284,2240.648 1089.099,2239.283 1039.920,2465.328 1115.062,2466.615 " />
<polygon stroke="black" stroke-width="1" fill="rgb(204, 204, 204)" fill-opacity="0.25" points="1251.145,2232.766 1166.284,2240.648 1115.062,2466.615 1198.085,2458.390 " />
<polygon stroke="black" stroke-width="1" fill="rgb(204, 204, 204)" fill-opacity="0.25" points="1198.085,2458.390 1115.062,2466.615 1065.169,2690.336 1146.736,2685.228 " />
<polygon stroke="black" stroke-width="1" fill="rgb(204, 204, 204)" fill-opacity="0.25" points="1115.062,2466.615 1039.920,2465.328 990.653,2686.770 1065.169,2690.336 " />
<polygon stroke="black" stroke-width="1" fill="rgb(204, 204, 204)" fill-opacity="0.25" points="1065.169,2690.336 990.653,2686.770 944.956,2894.728 1024.321,2904.587 " />
<polygon stroke="black" stroke-width="1" fill="rgb(204, 204, 204)" fill-opacity="0.25" points="1146.736,2685.228 1065.169,2690.336 1024.321,2904.587 1109.358,2906.810 " />
<polygon stroke="black" stroke-width="1" fill="rgb(204, 204, 204)" fill-opacity="0.25" points="1039.920,2465.328 970.366,2453.304 920.633,2673.630 990.653,2686.770 " />
<polygon stroke="black" stroke-width="1" fill="rgb(204, 204, 204)" fill-opacity="0.25" points="970.366,2453.304 902.638,2429.186 851.749,2649.535 920.633,2673.630 " />
<polygon stroke="black" stroke-width="1" fill="rgb(204, 204, 204)" fill-opacity="0.25" points="920.633,2673.630 851.749,2649.535 796.354,2851.406 869.784,2877.489 " />
<polygon stroke="black" stroke-width="1" fill="rgb(204, 204, 204)" fill-opacity="0.25" points="990.653,2686.770 920.633,2673.630 869.784,2877.489 944.956,2894.728 " />
<polygon stroke="black" stroke-width="1" fill="rgb(204, 204, 204)" fill-opacity="0.25" points="944.956,2894.728 869.784,2877.489 820.459,3066.127 904.077,3089.401 " />
<polygon stroke="black" stroke-width="1" fill="rgb(204, 204, 204)" fill-opacity="0.25" points="869.784,2877.489 796.354,2851.406 740.221,3036.416 820.459,3066.127 " />
<polygon stroke="black" stroke-width="1" fill="rgb(204, 204, 204)" fill-opacity="0.25" points="820.459,3066.127 740.221,3036.416 682.678,3209.674 772.907,3248.198 " />
<polygon stroke="black" stroke-width="1" fill="rgb(204, 204, 204)" fill-opacity="0.25" points="904.077,3089.401 820.459,3066.127 772.907,3248.198 867.321,3279.824 " />
<polygon stroke="black" stroke-width="1" fill="rgb(204, 204, 204)" fill-opacity="0.25" points="1109.358,2906.810 1024.321,2904.587 992.193,3107.826 1085.344,3119.967 " />
<polygon stroke="black" stroke-width="1" fill="rgb(204, 204, 204)" fill-opacity="0.25" points="1024.321,2904.587 944.956,2894.728 904.077,3089.401 992.193,3107.826 " />
<polygon stroke="black" stroke-width="1" fill="rgb(204, 204, 204)" fill-opacity="0.25" points="992.193,3107.826 904.077,3089.401 867.321,3279.824 965.838,3306.202 " />
<polygon stroke="black" stroke-width="1" fill="rgb(204, 204, 204)" fill-opacity="0.25" points="1085.344,3119.967 992.193,3107.826 965.838,3306.202 1068.180,3326.837 " />
<polygon stroke="black" stroke-width="1" fill="rgb(204, 204, 204)" fill-opacity="0.25" points="1068.180,3326.837 965.838,3306.202 946.956,3516.146 1056.515,3543.835 " />
<polygon stroke="black" stroke-width="1" fill="rgb(204, 204, 204)" fill-opacity="0.25" points="965.838,3306.202 867.321,3279.824 839.310,3474.641 946.956,3516.146 " />
<polygon stroke="black" stroke-width="1" fill="rgb(204, 204, 204)" fill-opacity="0.25" points="946.956,3516.146 839.310,3474.641 835.709,3668.531 952.105,3728.102 " />
<polygon stroke="black" stroke-width="1" fill="rgb(204, 204, 204)" fill-opacity="0.25" points="1056.515,3543.835 946.956,3516.146 952.105,3728.102 1062.989,3757.197 " />
<polygon stroke="black" stroke-width="1" fill="rgb(204, 204, 204)" fill-opacity="0.25" points="867.321,3279.824 772.907,3248.198 734.443,3420.502 839.310,3474.641 " />
<polygon stroke="black" stroke-width="1" fill="rgb(204, 204, 204)" fill-opacity="0.25" points="772.907,3248.198 682.678,3209.674 634.419,3362.793 734.443,3420.502 " />
<polygon stroke="black" stroke-width="1" fill="rgb(204, 204, 204)" fill-opacity="0.25" points="734.443,3420.502 634.419,3362.793 606.496,3503.626 718.053,3586.289 " />
<polygon stroke="black" stroke-width="1" fill="rgb(204, 204, 204)" fill-opacity="0.25" points="839.310,3474.641 734.443,3420.502 718.053,3586.289 835.709,3668.531 " />
<polygon stroke="black" stroke-width="1" fill="rgb(204, 204, 204)" fill-opacity="0.25" points="835.709,3668.531 718.053,3586.289 724.558,3750.562 855.140,3847.397 " />
<polygon stroke="black" stroke-width="1" fill="rgb(204, 204, 204)" fill-opacity="0.25" points="718.053,3586.289 606.496,3503.626 598.389,3641.974 724.558,3750.562 " />
<polygon stroke="black" stroke-width="1" fill="rgb(204, 204, 204)" fill-opacity="0.25" points="724.558,3750.562 598.389,3641.974 604.583,3776.437 748.677,3903.685 " />
<polygon stroke="black" stroke-width="1" fill="rgb(204, 204, 204)" fill-opacity="0.25" points="855.140,3847.397 724.558,3750.562 748.677,3903.685 886.080,4003.165 " />
<polygon stroke="black" stroke-width="1" fill="rgb(204, 204, 204)" fill-opacity="0.25" points="1062.989,3757.197 952.105,3728.102 974.539,3910.757 1083.021,3938.553 " />
<polygon stroke="black" stroke-width="1" fill="rgb(204, 204, 204)" fill-opacity="0.25" points="952.105,3728.102 835.709,3668.531 855.140,3847.397 974.539,3910.757 " />
<polygon stroke="black" stroke-width="1" fill="rgb(204, 204, 204)" fill-opacity="0.25" points="974.539,3910.757 855.140,3847.397 886.080,4003.165 998.971,4057.057 " />
<polygon stroke="black" stroke-width="1" fill="rgb(204, 204, 204)" fill-opacity="0.25" points="1083.021,3938.553 974.539,3910.757 998.971,4057.057 1098.502,4075.862 " />
<polygon stroke="black" stroke-width="1" fill="rgb(204, 204, 204)" fill-opacity="0.25" points="0.192,2366.464 10.336,2601.417 148.824,2678.765 154.652,2453.874 " />
<polygon stroke="black" stroke-width="1" fill="rgb(204, 204, 204)" fill-opacity="0.25" points="10.336,2601.417 33.304,2823.679 152.624,2887.138 148.824,2678.765 " />
<polygon stroke="black" stroke-width="1" fill="rgb(204, 204, 204)" fill-opacity="0.25" points="148.824,2678.765 152.624,2887.138 259.443,2949.335 277.687,2755.937 " />
<polygon stroke="black" stroke-width="1" fill="rgb(204, 204, 204)" fill-opacity="0.25" points="154.652,2453.874 148.824,2678.765 277.687,2755.937 302.892,2546.193 " />
<polygon stroke="black" stroke-width="1" fill="rgb(204, 204, 204)" fill-opacity="0.25" points="26.854,1882.177 0.000,2123.288 165.015,2214.404 193.875,1980.736 " />
<polygon stroke="black" stroke-width="1" fill="rgb(204, 204, 204)" fill-opacity="0.25" points="0.000,2123.288 0.192,2366.464 154.652,2453.874 165.015,2214.404 " />
<polygon stroke="black" stroke-width="1" fill="rgb(204, 204, 204)" fill-opacity="0.25" points="165.015,2214.404 154.652,2453.874 302.892,2546.193 327.906,2315.036 " />
<polygon stroke="black" stroke-width="1" fill="rgb(204, 204, 204)" fill-opacity="0.25" points="193.875,1980.736 165.015,2214.404 327.906,2315.036 356.789,2079.489 " />
<polygon stroke="black" stroke-width="1" fill="rgb(204, 204, 204)" fill-opacity="0.25" points="831.211,2391.445 748.176,2338.490 697.782,2561.927 779.527,2612.818 " />
<polygon stroke="black" stroke-width="1" fill="rgb(204, 204, 204)" fill-opacity="0.25" points="748.176,2338.490 644.032,2269.045 599.052,2495.791 697.782,2561.927 " />
<polygon stroke="black" stroke-width="1" fill="rgb(204, 204, 204)" fill-opacity="0.25" points="697.782,2561.927 599.052,2495.791 545.107,2706.125 639.300,2766.421 " />
<polygon stroke="black" stroke-width="1" fill="rgb(204, 204, 204)" fill-opacity="0.25" points="779.527,2612.818 697.782,2561.927 639.300,2766.421 721.117,2814.658 " />
<polygon stroke="black" stroke-width="1" fill="rgb(204, 204, 204)" fill-opacity="0.25" points="644.032,2269.045 511.671,2181.177 476.433,2412.400 599.052,2495.791 " />
<polygon stroke="black" stroke-width="1" fill="rgb(204, 204, 204)" fill-opacity="0.25" points="511.671,2181.177 356.789,2079.489 327.906,2315.036 476.433,2412.400 " />
<polygon stroke="black" stroke-width="1" fill="rgb(204, 204, 204)" fill-opacity="0.25" points="476.433,2412.400 327.906,2315.036 302.892,2546.193 433.959,2632.601 " />
<polygon stroke="black" stroke-width="1" fill="rgb(204, 204, 204)" fill-opacity="0.25" points="599.052,2495.791 476.433,2412.400 433.959,2632.601 545.107,2706.125 " />
<polygon stroke="black" stroke-width="1" fill="rgb(204, 204, 204)" fill-opacity="0.25" points="545.107,2706.125 433.959,2632.601 391.823,2828.288 491.112,2894.015 " />
<polygon stroke="black" stroke-width="1" fill="rgb(204, 204, 204)" fill-opacity="0.25" points="433.959,2632.601 302.892,2546.193 277.687,2755.937 391.823,2828.288 " />
<polygon stroke="black" stroke-width="1" fill="rgb(204, 204, 204)" fill-opacity="0.25" points="391.823,2828.288 277.687,2755.937 259.443,2949.335 352.799,3009.034 " />
<polygon stroke="black" stroke-width="1" fill="rgb(204, 204, 204)" fill-opacity="0.25" points="491.112,2894.015 391.823,2828.288 352.799,3009.034 437.238,3065.623 " />
<polygon stroke="black" stroke-width="1" fill="rgb(204, 204, 204)" fill-opacity="0.25" points="721.117,2814.658 639.300,2766.421 579.190,2950.767 660.898,2998.137 " />
<polygon stroke="black" stroke-width="1" fill="rgb(204, 204, 204)" fill-opacity="0.25" points="639.300,2766.421 545.107,2706.125 491.112,2894.015 579.190,2950.767 " />
<polygon stroke="black" stroke-width="1" fill="rgb(204, 204, 204)" fill-opacity="0.25" points="579.190,2950.767 491.112,2894.015 437.238,3065.623 517.495,3118.234 " />
<polygon stroke="black" stroke-width="1" fill="rgb(204, 204, 204)" fill-opacity="0.25" points="660.898,2998.137 579.190,2950.767 517.495,3118.234 598.178,3166.346 " />
<polygon stroke="black" stroke-width="1" fill="rgb(204, 204, 204)" fill-opacity="0.25" points="707.949,1060.316 577.415,1349.951 707.671,1504.179 818.054,1297.791 " />
<polygon stroke="black" stroke-width="1" fill="rgb(204, 204, 204)" fill-opacity="0.25" points="577.415,1349.951 486.447,1616.485 618.324,1731.195 707.671,1504.179 " />
<polygon stroke="black" stroke-width="1" fill="rgb(204, 204, 204)" fill-opacity="0.25" points="707.671,1504.179 618.324,1731.195 734.469,1827.189 808.001,1620.533 " />
<polygon stroke="black" stroke-width="1" fill="rgb(204, 204, 204)" fill-opacity="0.25" points="818.054,1297.791 707.671,1504.179 808.001,1620.533 894.921,1428.022 " />
<polygon stroke="black" stroke-width="1" fill="rgb(204, 204, 204)" fill-opacity="0.25" points="486.447,1616.485 408.540,1854.056 552.575,1952.322 618.324,1731.195 " />
<polygon stroke="black" stroke-width="1" fill="rgb(204, 204, 204)" fill-opacity="0.25" points="408.540,1854.056 356.789,2079.489 511.671,2181.177 552.575,1952.322 " />
<polygon stroke="black" stroke-width="1" fill="rgb(204, 204, 204)" fill-opacity="0.25" points="552.575,1952.322 511.671,2181.177 644.032,2269.045 683.478,2042.189 " />
<polygon stroke="black" stroke-width="1" fill="rgb(204, 204, 204)" fill-opacity="0.25" points="618.324,1731.195 552.575,1952.322 683.478,2042.189 734.469,1827.189 " />
<polygon stroke="black" stroke-width="1" fill="rgb(204, 204, 204)" fill-opacity="0.25" points="734.469,1827.189 683.478,2042.189 788.951,2112.511 832.134,1900.100 " />
<polygon stroke="black" stroke-width="1" fill="rgb(204, 204, 204)" fill-opacity="0.25" points="683.478,2042.189 644.032,2269.045 748.176,2338.490 788.951,2112.511 " />
<polygon stroke="black" stroke-width="1" fill="rgb(204, 204, 204)" fill-opacity="0.25" points="874.118,2164.785 831.211,2391.445 902.638,2429.186 947.685,2202.618 " />
<polygon stroke="black" stroke-width="1" fill="rgb(204, 204, 204)" fill-opacity="0.25" points="914.768,1952.585 874.118,2164.785 947.685,2202.618 988.469,1988.676 " />
<polygon stroke="black" stroke-width="1" fill="rgb(204, 204, 204)" fill-opacity="0.25" points="894.921,1428.022 808.001,1620.533 890.877,1702.397 962.270,1513.252 " />
<polygon stroke="black" stroke-width="1" fill="rgb(204, 204, 204)" fill-opacity="0.25" points="808.001,1620.533 734.469,1827.189 832.134,1900.100 890.877,1702.397 " />
<polygon stroke="black" stroke-width="1" fill="rgb(204, 204, 204)" fill-opacity="0.25" points="963.570,1757.375 914.768,1952.585 988.469,1988.676 1031.870,1792.554 " />
<polygon stroke="black" stroke-width="1" fill="rgb(204, 204, 204)" fill-opacity="0.25" points="1024.314,1570.175 963.570,1757.375 1031.870,1792.554 1085.197,1605.114 " />
<polygon stroke="black" stroke-width="1" fill="rgb(204, 204, 204)" fill-opacity="0.25" points="356.789,2079.489 408.540,1854.056 252.796,1747.141 193.875,1980.736 " />
<polygon stroke="black" stroke-width="1" fill="rgb(204, 204, 204)" fill-opacity="0.25" points="408.540,1854.056 486.447,1616.485 329.056,1485.201 252.796,1747.141 " />
<polygon stroke="black" stroke-width="1" fill="rgb(204, 204, 204)" fill-opacity="0.25" points="252.796,1747.141 329.056,1485.201 162.100,1346.589 90.637,1629.730 " />
<polygon stroke="black" stroke-width="1" fill="rgb(204, 204, 204)" fill-opacity="0.25" points="193.875,1980.736 252.796,1747.141 90.637,1629.730 26.854,1882.177 " />
<polygon stroke="black" stroke-width="1" fill="rgb(204, 204, 204)" fill-opacity="0.25" points="486.447,1616.485 577.415,1349.951 397.287,1187.690 329.056,1485.201 " />
<polygon stroke="black" stroke-width="1" fill="rgb(204, 204, 204)" fill-opacity="0.25" points="577.415,1349.951 707.949,1060.316 473.493,874.477 397.287,1187.690 " />
<polygon stroke="black" stroke-width="1" fill="rgb(204, 204, 204)" fill-opacity="0.25" points="397.287,1187.690 473.493,874.477 208.227,705.415 208.418,1034.444 " />
<polygon stroke="black" stroke-width="1" fill="rgb(204, 204, 204)" fill-opacity="0.25" points="329.056,1485.201 397.287,1187.690 208.418,1034.444 162.100,1346.589 " />
<polygon stroke="black" stroke-width="1" fill="rgb(204, 204, 204)" fill-opacity="0.25" points="259.443,2949.335 229.415,3098.179 307.612,3146.757 352.799,3009.034 " />
<polygon stroke="black" stroke-width="1" fill="rgb(204, 204, 204)" fill-opacity="0.25" points="229.415,3098.179 203.831,3208.545 271.117,3252.283 307.612,3146.757 " />
<polygon stroke="black" stroke-width="1" fill="rgb(204, 204, 204)" fill-opacity="0.25" points="307.612,3146.757 271.117,3252.283 341.345,3305.209 383.424,3198.761 " />
<polygon stroke="black" stroke-width="1" fill="rgb(204, 204, 204)" fill-opacity="0.25" points="352.799,3009.034 307.612,3146.757 383.424,3198.761 437.238,3065.623 " />
<polygon stroke="black" stroke-width="1" fill="rgb(204, 204, 204)" fill-opacity="0.25" points="203.831,3208.545 187.235,3294.696 243.049,3337.155 271.117,3252.283 " />
<polygon stroke="black" stroke-width="1" fill="rgb(204, 204, 204)" fill-opacity="0.25" points="187.235,3294.696 180.291,3352.149 217.734,3399.819 243.049,3337.155 " />
<polygon stroke="black" stroke-width="1" fill="rgb(204, 204, 204)" fill-opacity="0.25" points="243.049,3337.155 217.734,3399.819 278.841,3469.493 308.340,3395.249 " />
<polygon stroke="black" stroke-width="1" fill="rgb(204, 204, 204)" fill-opacity="0.25" points="271.117,3252.283 243.049,3337.155 308.340,3395.249 341.345,3305.209 " />
<polygon stroke="black" stroke-width="1" fill="rgb(204, 204, 204)" fill-opacity="0.25" points="341.345,3305.209 308.340,3395.249 387.860,3465.737 418.186,3365.176 " />
<polygon stroke="black" stroke-width="1" fill="rgb(204, 204, 204)" fill-opacity="0.25" points="308.340,3395.249 278.841,3469.493 364.444,3555.907 387.860,3465.737 " />
<polygon stroke="black" stroke-width="1" fill="rgb(204, 204, 204)" fill-opacity="0.25" points="485.309,3548.241 475.079,3658.036 604.583,3776.437 598.389,3641.974 " />
<polygon stroke="black" stroke-width="1" fill="rgb(204, 204, 204)" fill-opacity="0.25" points="505.793,3431.105 485.309,3548.241 598.389,3641.974 606.496,3503.626 " />
<polygon stroke="black" stroke-width="1" fill="rgb(204, 204, 204)" fill-opacity="0.25" points="437.238,3065.623 383.424,3198.761 460.879,3252.799 517.495,3118.234 " />
<polygon stroke="black" stroke-width="1" fill="rgb(204, 204, 204)" fill-opacity="0.25" points="383.424,3198.761 341.345,3305.209 418.186,3365.176 460.879,3252.799 " />
<polygon stroke="black" stroke-width="1" fill="rgb(204, 204, 204)" fill-opacity="0.25" points="543.328,3307.068 505.793,3431.105 606.496,3503.626 634.419,3362.793 " />
<polygon stroke="black" stroke-width="1" fill="rgb(204, 204, 204)" fill-opacity="0.25" points="598.178,3166.346 543.328,3307.068 634.419,3362.793 682.678,3209.674 " />
<polygon stroke="black" stroke-width="1" fill="rgb(204, 204, 204)" fill-opacity="0.25" points="90.106,3350.641 143.280,3353.851 131.631,3271.670 68.793,3254.347 " />
<polygon stroke="black" stroke-width="1" fill="rgb(204, 204, 204)" fill-opacity="0.25" points="143.280,3353.851 180.291,3352.149 187.235,3294.696 131.631,3271.670 " />
<polygon stroke="black" stroke-width="1" fill="rgb(204, 204, 204)" fill-opacity="0.25" points="131.631,3271.670 187.235,3294.696 203.831,3208.545 134.350,3174.543 " />
<polygon stroke="black" stroke-width="1" fill="rgb(204, 204, 204)" fill-opacity="0.25" points="68.793,3254.347 131.631,3271.670 134.350,3174.543 57.855,3146.196 " />
<polygon stroke="black" stroke-width="1" fill="rgb(204, 204, 204)" fill-opacity="0.25" points="57.855,3146.196 134.350,3174.543 144.189,3053.274 50.420,3011.066 " />
<polygon stroke="black" stroke-width="1" fill="rgb(204, 204, 204)" fill-opacity="0.25" points="134.350,3174.543 203.831,3208.545 229.415,3098.179 144.189,3053.274 " />
<polygon stroke="black" stroke-width="1" fill="rgb(204, 204, 204)" fill-opacity="0.25" points="144.189,3053.274 229.415,3098.179 259.443,2949.335 152.624,2887.138 " />
<polygon stroke="black" stroke-width="1" fill="rgb(204, 204, 204)" fill-opacity="0.25" points="50.420,3011.066 144.189,3053.274 152.624,2887.138 33.304,2823.679 " />
<polygon stroke="black" stroke-width="1" fill="rgb(204, 204, 204)" fill-opacity="0.25" points="-0.000,141.736 114.884,390.934 427.617,504.861 292.512,211.212 " />
<polygon stroke="black" stroke-width="1" fill="rgb(204, 204, 204)" fill-opacity="0.25" points="114.884,390.934 208.227,705.415 473.493,874.477 427.617,504.861 " />
<polygon stroke="black" stroke-width="1" fill="rgb(204, 204, 204)" fill-opacity="0.25" points="427.617,504.861 473.493,874.477 707.949,1060.316 686.198,661.907 " />
<polygon stroke="black" stroke-width="1" fill="rgb(204, 204, 204)" fill-opacity="0.25" points="292.512,211.212 427.617,504.861 686.198,661.907 547.024,314.725 " />
<polygon stroke="black" stroke-width="1" fill="rgb(204, 204, 204)" fill-opacity="0.25" points="1372.229,1627.805 1415.481,1445.984 1338.693,1449.393 1291.002,1632.242 " />
<polygon stroke="black" stroke-width="1" fill="rgb(204, 204, 204)" fill-opacity="0.25" points="1415.481,1445.984 1456.293,1267.898 1385.856,1271.273 1338.693,1449.393 " />
<polygon stroke="black" stroke-width="1" fill="rgb(204, 204, 204)" fill-opacity="0.25" points="1338.693,1449.393 1385.856,1271.273 1320.365,1269.689 1267.916,1447.768 " />
<polygon stroke="black" stroke-width="1" fill="rgb(204, 204, 204)" fill-opacity="0.25" points="1291.002,1632.242 1338.693,1449.393 1267.916,1447.768 1216.661,1631.712 " />
<polygon stroke="black" stroke-width="1" fill="rgb(204, 204, 204)" fill-opacity="0.25" points="1456.293,1267.898 1491.073,1094.204 1427.474,1096.908 1385.856,1271.273 " />
<polygon stroke="black" stroke-width="1" fill="rgb(204, 204, 204)" fill-opacity="0.25" points="1491.073,1094.204 1518.149,923.566 1460.250,924.497 1427.474,1096.908 " />
<polygon stroke="black" stroke-width="1" fill="rgb(204, 204, 204)" fill-opacity="0.25" points="1427.474,1096.908 1460.250,924.497 1406.577,920.579 1368.494,1094.858 " />
<polygon stroke="black" stroke-width="1" fill="rgb(204, 204, 204)" fill-opacity="0.25" points="1385.856,1271.273 1427.474,1096.908 1368.494,1094.858 1320.365,1269.689 " />
<polygon stroke="black" stroke-width="1" fill="rgb(204, 204, 204)" fill-opacity="0.25" points="1320.365,1269.689 1368.494,1094.858 1314.349,1088.207 1260.364,1262.255 " />
<polygon stroke="black" stroke-width="1" fill="rgb(204, 204, 204)" fill-opacity="0.25" points="1368.494,1094.858 1406.577,920.579 1356.543,912.703 1314.349,1088.207 " />
<polygon stroke="black" stroke-width="1" fill="rgb(204, 204, 204)" fill-opacity="0.25" points="1314.349,1088.207 1356.543,912.703 1309.217,901.488 1264.869,1076.584 " />
<polygon stroke="black" stroke-width="1" fill="rgb(204, 204, 204)" fill-opacity="0.25" points="1260.364,1262.255 1314.349,1088.207 1264.869,1076.584 1206.632,1247.632 " />
<polygon stroke="black" stroke-width="1" fill="rgb(204, 204, 204)" fill-opacity="0.25" points="1216.661,1631.712 1267.916,1447.768 1203.331,1439.598 1148.431,1623.931 " />
<polygon stroke="black" stroke-width="1" fill="rgb(204, 204, 204)" fill-opacity="0.25" points="1267.916,1447.768 1320.365,1269.689 1260.364,1262.255 1203.331,1439.598 " />
<polygon stroke="black" stroke-width="1" fill="rgb(204, 204, 204)" fill-opacity="0.25" points="1203.331,1439.598 1260.364,1262.255 1206.632,1247.632 1144.461,1421.736 " />
<polygon stroke="black" stroke-width="1" fill="rgb(204, 204, 204)" fill-opacity="0.25" points="1148.431,1623.931 1203.331,1439.598 1144.461,1421.736 1085.197,1605.114 " />
<polygon stroke="black" stroke-width="1" fill="rgb(204, 204, 204)" fill-opacity="0.25" points="854.340,442.896 728.495,404.950 837.739,695.232 942.876,682.052 " />
<polygon stroke="black" stroke-width="1" fill="rgb(204, 204, 204)" fill-opacity="0.25" points="728.495,404.950 547.024,314.725 686.198,661.907 837.739,695.232 " />
<polygon stroke="black" stroke-width="1" fill="rgb(204, 204, 204)" fill-opacity="0.25" points="837.739,695.232 686.198,661.907 707.949,1060.316 887.877,971.529 " />
<polygon stroke="black" stroke-width="1" fill="rgb(204, 204, 204)" fill-opacity="0.25" points="942.876,682.052 837.739,695.232 887.877,971.529 997.458,888.259 " />
<polygon stroke="black" stroke-width="1" fill="rgb(204, 204, 204)" fill-opacity="0.25" points="1030.894,429.105 949.758,442.799 1021.853,653.346 1081.480,629.917 " />
<polygon stroke="black" stroke-width="1" fill="rgb(204, 204, 204)" fill-opacity="0.25" points="949.758,442.799 854.340,442.896 942.876,682.052 1021.853,653.346 " />
<polygon stroke="black" stroke-width="1" fill="rgb(204, 204, 204)" fill-opacity="0.25" points="1021.853,653.346 942.876,682.052 997.458,888.259 1065.619,812.374 " />
<polygon stroke="black" stroke-width="1" fill="rgb(204, 204, 204)" fill-opacity="0.25" points="1081.480,629.917 1021.853,653.346 1065.619,812.374 1101.632,753.672 " />
<polygon stroke="black" stroke-width="1" fill="rgb(204, 204, 204)" fill-opacity="0.25" points="1030.894,429.105 1081.480,629.917 1136.310,640.495 1106.434,434.428 " />
<polygon stroke="black" stroke-width="1" fill="rgb(204, 204, 204)" fill-opacity="0.25" points="1081.480,629.917 1101.632,753.672 1136.981,793.617 1136.310,640.495 " />
<polygon stroke="black" stroke-width="1" fill="rgb(204, 204, 204)" fill-opacity="0.25" points="1136.310,640.495 1136.981,793.617 1178.599,833.267 1188.613,661.563 " />
<polygon stroke="black" stroke-width="1" fill="rgb(204, 204, 204)" fill-opacity="0.25" points="1106.434,434.428 1136.310,640.495 1188.613,661.563 1173.588,450.810 " />
<polygon stroke="black" stroke-width="1" fill="rgb(204, 204, 204)" fill-opacity="0.25" points="1173.588,450.810 1188.613,661.563 1238.221,682.893 1232.776,469.941 " />
<polygon stroke="black" stroke-width="1" fill="rgb(204, 204, 204)" fill-opacity="0.25" points="1188.613,661.563 1178.599,833.267 1220.966,863.979 1238.221,682.893 " />
<polygon stroke="black" stroke-width="1" fill="rgb(204, 204, 204)" fill-opacity="0.25" points="1285.929,700.922 1264.119,885.872 1309.217,901.488 1333.251,716.215 " />
<polygon stroke="black" stroke-width="1" fill="rgb(204, 204, 204)" fill-opacity="0.25" points="1287.004,489.013 1285.929,700.922 1333.251,716.215 1339.025,508.111 " />
<polygon stroke="black" stroke-width="1" fill="rgb(204, 204, 204)" fill-opacity="0.25" points="1264.119,885.872 1220.966,863.979 1178.687,1028.047 1219.843,1057.714 " />
<polygon stroke="black" stroke-width="1" fill="rgb(204, 204, 204)" fill-opacity="0.25" points="1220.966,863.979 1178.599,833.267 1140.129,982.136 1178.687,1028.047 " />
<polygon stroke="black" stroke-width="1" fill="rgb(204, 204, 204)" fill-opacity="0.25" points="1178.687,1028.047 1140.129,982.136 1075.326,1123.757 1114.954,1184.256 " />
<polygon stroke="black" stroke-width="1" fill="rgb(204, 204, 204)" fill-opacity="0.25" points="1219.843,1057.714 1178.687,1028.047 1114.954,1184.256 1158.371,1223.038 " />
<polygon stroke="black" stroke-width="1" fill="rgb(204, 204, 204)" fill-opacity="0.25" points="1178.599,833.267 1136.981,793.617 1102.813,913.280 1140.129,982.136 " />
<polygon stroke="black" stroke-width="1" fill="rgb(204, 204, 204)" fill-opacity="0.25" points="1136.981,793.617 1101.632,753.672 1065.619,812.374 1102.813,913.280 " />
<polygon stroke="black" stroke-width="1" fill="rgb(204, 204, 204)" fill-opacity="0.25" points="1102.813,913.280 1065.619,812.374 997.458,888.259 1037.759,1030.180 " />
<polygon stroke="black" stroke-width="1" fill="rgb(204, 204, 204)" fill-opacity="0.25" points="1140.129,982.136 1102.813,913.280 1037.759,1030.180 1075.326,1123.757 " />
<polygon stroke="black" stroke-width="1" fill="rgb(204, 204, 204)" fill-opacity="0.25" points="1075.326,1123.757 1037.759,1030.180 941.349,1154.081 989.065,1267.111 " />
<polygon stroke="black" stroke-width="1" fill="rgb(204, 204, 204)" fill-opacity="0.25" points="1037.759,1030.180 997.458,888.259 887.877,971.529 941.349,1154.081 " />
<polygon stroke="black" stroke-width="1" fill="rgb(204, 204, 204)" fill-opacity="0.25" points="941.349,1154.081 887.877,971.529 707.949,1060.316 818.054,1297.791 " />
<polygon stroke="black" stroke-width="1" fill="rgb(204, 204, 204)" fill-opacity="0.25" points="989.065,1267.111 941.349,1154.081 818.054,1297.791 894.921,1428.022 " />
<polygon stroke="black" stroke-width="1" fill="rgb(204, 204, 204)" fill-opacity="0.25" points="1158.371,1223.038 1114.954,1184.256 1038.046,1340.954 1089.652,1389.994 " />
<polygon stroke="black" stroke-width="1" fill="rgb(204, 204, 204)" fill-opacity="0.25" points="1114.954,1184.256 1075.326,1123.757 989.065,1267.111 1038.046,1340.954 " />
<polygon stroke="black" stroke-width="1" fill="rgb(204, 204, 204)" fill-opacity="0.25" points="1038.046,1340.954 989.065,1267.111 894.921,1428.022 962.270,1513.252 " />
<polygon stroke="black" stroke-width="1" fill="rgb(204, 204, 204)" fill-opacity="0.25" points="1089.652,1389.994 1038.046,1340.954 962.270,1513.252 1024.314,1570.175 " />
<polygon stroke="black" stroke-width="1" fill="rgb(204, 204, 204)" fill-opacity="0.25" points="1098.502,4075.862 998.971,4057.057 1009.609,4166.568 1102.874,4179.514 " />
<polygon stroke="black" stroke-width="1" fill="rgb(204, 204, 204)" fill-opacity="0.25" points="998.971,4057.057 886.080,4003.165 908.383,4126.579 1009.609,4166.568 " />
<polygon stroke="black" stroke-width="1" fill="rgb(204, 204, 204)" fill-opacity="0.25" points="1009.609,4166.568 908.383,4126.579 915.869,4223.562 1011.156,4256.572 " />
<polygon stroke="black" stroke-width="1" fill="rgb(204, 204, 204)" fill-opacity="0.25" points="1102.874,4179.514 1009.609,4166.568 1011.156,4256.572 1101.731,4267.000 " />
<polygon stroke="black" stroke-width="1" fill="rgb(204, 204, 204)" fill-opacity="0.25" points="886.080,4003.165 748.677,3903.685 777.141,4037.622 908.383,4126.579 " />
<polygon stroke="black" stroke-width="1" fill="rgb(204, 204, 204)" fill-opacity="0.25" points="748.677,3903.685 604.583,3776.437 617.171,3899.948 777.141,4037.622 " />
<polygon stroke="black" stroke-width="1" fill="rgb(204, 204, 204)" fill-opacity="0.25" points="777.141,4037.622 617.171,3899.948 623.079,4003.881 793.882,4146.997 " />
<polygon stroke="black" stroke-width="1" fill="rgb(204, 204, 204)" fill-opacity="0.25" points="908.383,4126.579 777.141,4037.622 793.882,4146.997 915.869,4223.562 " />
<polygon stroke="black" stroke-width="1" fill="rgb(204, 204, 204)" fill-opacity="0.25" points="475.079,3658.036 364.444,3555.907 339.089,3630.061 466.187,3755.112 " />
<polygon stroke="black" stroke-width="1" fill="rgb(204, 204, 204)" fill-opacity="0.25" points="364.444,3555.907 278.841,3469.493 243.672,3522.647 339.089,3630.061 " />
<polygon stroke="black" stroke-width="1" fill="rgb(204, 204, 204)" fill-opacity="0.25" points="339.089,3630.061 243.672,3522.647 196.592,3555.260 302.535,3683.582 " />
<polygon stroke="black" stroke-width="1" fill="rgb(204, 204, 204)" fill-opacity="0.25" points="466.187,3755.112 339.089,3630.061 302.535,3683.582 447.910,3833.109 " />
<polygon stroke="black" stroke-width="1" fill="rgb(204, 204, 204)" fill-opacity="0.25" points="278.841,3469.493 217.734,3399.819 180.654,3432.432 243.672,3522.647 " />
<polygon stroke="black" stroke-width="1" fill="rgb(204, 204, 204)" fill-opacity="0.25" points="217.734,3399.819 180.291,3352.149 143.280,3353.851 180.654,3432.432 " />
<polygon stroke="black" stroke-width="1" fill="rgb(204, 204, 204)" fill-opacity="0.25" points="180.654,3432.432 143.280,3353.851 90.106,3350.641 130.594,3446.877 " />
<polygon stroke="black" stroke-width="1" fill="rgb(204, 204, 204)" fill-opacity="0.25" points="243.672,3522.647 180.654,3432.432 130.594,3446.877 196.592,3555.260 " />
<polygon stroke="black" stroke-width="1" fill="rgb(204, 204, 204)" fill-opacity="0.25" points="1666.491,559.092 1607.045,566.592 1595.160,746.364 1656.091,734.082 " />
<polygon stroke="black" stroke-width="1" fill="rgb(204, 204, 204)" fill-opacity="0.25" points="1607.045,566.592 1550.023,565.508 1536.806,750.385 1595.160,746.364 " />
<polygon stroke="black" stroke-width="1" fill="rgb(204, 204, 204)" fill-opacity="0.25" points="1595.160,746.364 1536.806,750.385 1518.149,923.566 1580.035,916.339 " />
<polygon stroke="black" stroke-width="1" fill="rgb(204, 204, 204)" fill-opacity="0.25" points="1656.091,734.082 1595.160,746.364 1580.035,916.339 1645.267,901.247 " />
<polygon stroke="black" stroke-width="1" fill="rgb(204, 204, 204)" fill-opacity="0.25" points="1799.431,512.731 1729.921,541.149 1720.371,712.035 1789.453,679.713 " />
<polygon stroke="black" stroke-width="1" fill="rgb(204, 204, 204)" fill-opacity="0.25" points="1729.921,541.149 1666.491,559.092 1656.091,734.082 1720.371,712.035 " />
<polygon stroke="black" stroke-width="1" fill="rgb(204, 204, 204)" fill-opacity="0.25" points="1720.371,712.035 1656.091,734.082 1645.267,901.247 1713.572,876.207 " />
<polygon stroke="black" stroke-width="1" fill="rgb(204, 204, 204)" fill-opacity="0.25" points="1789.453,679.713 1720.371,712.035 1713.572,876.207 1785.843,840.333 " />
<polygon stroke="black" stroke-width="1" fill="rgb(204, 204, 204)" fill-opacity="0.25" points="1612.771,2336.770 1662.980,2117.111 1551.509,2159.956 1498.911,2381.423 " />
<polygon stroke="black" stroke-width="1" fill="rgb(204, 204, 204)" fill-opacity="0.25" points="1662.980,2117.111 1701.166,1914.353 1591.608,1954.479 1551.509,2159.956 " />
<polygon stroke="black" stroke-width="1" fill="rgb(204, 204, 204)" fill-opacity="0.25" points="1551.509,2159.956 1591.608,1954.479 1487.225,1983.856 1444.891,2192.706 " />
<polygon stroke="black" stroke-width="1" fill="rgb(204, 204, 204)" fill-opacity="0.25" points="1498.911,2381.423 1551.509,2159.956 1444.891,2192.706 1390.725,2415.830 " />
<polygon stroke="black" stroke-width="1" fill="rgb(204, 204, 204)" fill-opacity="0.25" points="1701.166,1914.353 1732.002,1722.390 1623.865,1761.622 1591.608,1954.479 " />
<polygon stroke="black" stroke-width="1" fill="rgb(204, 204, 204)" fill-opacity="0.25" points="1732.002,1722.390 1757.008,1535.534 1653.570,1576.214 1623.865,1761.622 " />
<polygon stroke="black" stroke-width="1" fill="rgb(204, 204, 204)" fill-opacity="0.25" points="1623.865,1761.622 1653.570,1576.214 1554.567,1602.611 1521.283,1788.441 " />
<polygon stroke="black" stroke-width="1" fill="rgb(204, 204, 204)" fill-opacity="0.25" points="1591.608,1954.479 1623.865,1761.622 1521.283,1788.441 1487.225,1983.856 " />
<polygon stroke="black" stroke-width="1" fill="rgb(204, 204, 204)" fill-opacity="0.25" points="1487.225,1983.856 1521.283,1788.441 1424.272,1806.318 1388.395,2004.709 " />
<polygon stroke="black" stroke-width="1" fill="rgb(204, 204, 204)" fill-opacity="0.25" points="1521.283,1788.441 1554.567,1602.611 1460.416,1618.664 1424.272,1806.318 " />
<polygon stroke="black" stroke-width="1" fill="rgb(204, 204, 204)" fill-opacity="0.25" points="1424.272,1806.318 1460.416,1618.664 1372.229,1627.805 1333.509,1817.407 " />
<polygon stroke="black" stroke-width="1" fill="rgb(204, 204, 204)" fill-opacity="0.25" points="1388.395,2004.709 1424.272,1806.318 1333.509,1817.407 1296.067,2018.177 " />
<polygon stroke="black" stroke-width="1" fill="rgb(204, 204, 204)" fill-opacity="0.25" points="1390.725,2415.830 1444.891,2192.706 1344.258,2216.718 1290.036,2441.347 " />
<polygon stroke="black" stroke-width="1" fill="rgb(204, 204, 204)" fill-opacity="0.25" points="1444.891,2192.706 1487.225,1983.856 1388.395,2004.709 1344.258,2216.718 " />
<polygon stroke="black" stroke-width="1" fill="rgb(204, 204, 204)" fill-opacity="0.25" points="1344.258,2216.718 1388.395,2004.709 1296.067,2018.177 1251.145,2232.766 " />
<polygon stroke="black" stroke-width="1" fill="rgb(204, 204, 204)" fill-opacity="0.25" points="1290.036,2441.347 1344.258,2216.718 1251.145,2232.766 1198.085,2458.390 " />
<polygon stroke="black" stroke-width="1" fill="rgb(204, 204, 204)" fill-opacity="0.25" points="1508.269,3289.177 1503.408,3065.107 1392.539,3096.074 1394.650,3320.860 " />
<polygon stroke="black" stroke-width="1" fill="rgb(204, 204, 204)" fill-opacity="0.25" points="1503.408,3065.107 1514.431,2822.319 1403.131,2858.802 1392.539,3096.074 " />
<polygon stroke="black" stroke-width="1" fill="rgb(204, 204, 204)" fill-opacity="0.25" points="1392.539,3096.074 1403.131,2858.802 1298.563,2884.597 1285.765,3115.557 " />
<polygon stroke="black" stroke-width="1" fill="rgb(204, 204, 204)" fill-opacity="0.25" points="1394.650,3320.860 1392.539,3096.074 1285.765,3115.557 1282.622,3337.577 " />
<polygon stroke="black" stroke-width="1" fill="rgb(204, 204, 204)" fill-opacity="0.25" points="1514.431,2822.319 1556.123,2574.133 1442.150,2616.569 1403.131,2858.802 " />
<polygon stroke="black" stroke-width="1" fill="rgb(204, 204, 204)" fill-opacity="0.25" points="1556.123,2574.133 1612.771,2336.770 1498.911,2381.423 1442.150,2616.569 " />
<polygon stroke="black" stroke-width="1" fill="rgb(204, 204, 204)" fill-opacity="0.25" points="1442.150,2616.569 1498.911,2381.423 1390.725,2415.830 1335.253,2648.594 " />
<polygon stroke="black" stroke-width="1" fill="rgb(204, 204, 204)" fill-opacity="0.25" points="1403.131,2858.802 1442.150,2616.569 1335.253,2648.594 1298.563,2884.597 " />
<polygon stroke="black" stroke-width="1" fill="rgb(204, 204, 204)" fill-opacity="0.25" points="1298.563,2884.597 1335.253,2648.594 1236.624,2671.383 1200.706,2900.409 " />
<polygon stroke="black" stroke-width="1" fill="rgb(204, 204, 204)" fill-opacity="0.25" points="1335.253,2648.594 1390.725,2415.830 1290.036,2441.347 1236.624,2671.383 " />
<polygon stroke="black" stroke-width="1" fill="rgb(204, 204, 204)" fill-opacity="0.25" points="1236.624,2671.383 1290.036,2441.347 1198.085,2458.390 1146.736,2685.228 " />
<polygon stroke="black" stroke-width="1" fill="rgb(204, 204, 204)" fill-opacity="0.25" points="1200.706,2900.409 1236.624,2671.383 1146.736,2685.228 1109.358,2906.810 " />
<polygon stroke="black" stroke-width="1" fill="rgb(204, 204, 204)" fill-opacity="0.25" points="1282.622,3337.577 1285.765,3115.557 1183.275,3123.230 1173.524,3338.791 " />
<polygon stroke="black" stroke-width="1" fill="rgb(204, 204, 204)" fill-opacity="0.25" points="1285.765,3115.557 1298.563,2884.597 1200.706,2900.409 1183.275,3123.230 " />
<polygon stroke="black" stroke-width="1" fill="rgb(204, 204, 204)" fill-opacity="0.25" points="1183.275,3123.230 1200.706,2900.409 1109.358,2906.810 1085.344,3119.967 " />
<polygon stroke="black" stroke-width="1" fill="rgb(204, 204, 204)" fill-opacity="0.25" points="1173.524,3338.791 1183.275,3123.230 1085.344,3119.967 1068.180,3326.837 " />
<polygon stroke="black" stroke-width="1" fill="rgb(204, 204, 204)" fill-opacity="0.25" points="1560.334,3940.391 1530.243,3810.749 1404.368,3873.167 1423.254,4006.851 " />
<polygon stroke="black" stroke-width="1" fill="rgb(204, 204, 204)" fill-opacity="0.25" points="1530.243,3810.749 1514.286,3660.484 1391.668,3712.213 1404.368,3873.167 " />
<polygon stroke="black" stroke-width="1" fill="rgb(204, 204, 204)" fill-opacity="0.25" points="1404.368,3873.167 1391.668,3712.213 1278.034,3749.618 1291.002,3918.541 " />
<polygon stroke="black" stroke-width="1" fill="rgb(204, 204, 204)" fill-opacity="0.25" points="1423.254,4006.851 1404.368,3873.167 1291.002,3918.541 1302.590,4050.750 " />
<polygon stroke="black" stroke-width="1" fill="rgb(204, 204, 204)" fill-opacity="0.25" points="1514.286,3660.484 1511.880,3487.232 1393.132,3526.824 1391.668,3712.213 " />
<polygon stroke="black" stroke-width="1" fill="rgb(204, 204, 204)" fill-opacity="0.25" points="1511.880,3487.232 1508.269,3289.177 1394.650,3320.860 1393.132,3526.824 " />
<polygon stroke="black" stroke-width="1" fill="rgb(204, 204, 204)" fill-opacity="0.25" points="1393.132,3526.824 1394.650,3320.860 1282.622,3337.577 1277.482,3551.692 " />
<polygon stroke="black" stroke-width="1" fill="rgb(204, 204, 204)" fill-opacity="0.25" points="1391.668,3712.213 1393.132,3526.824 1277.482,3551.692 1278.034,3749.618 " />
<polygon stroke="black" stroke-width="1" fill="rgb(204, 204, 204)" fill-opacity="0.25" points="1278.034,3749.618 1277.482,3551.692 1166.677,3557.469 1171.226,3764.558 " />
<polygon stroke="black" stroke-width="1" fill="rgb(204, 204, 204)" fill-opacity="0.25" points="1277.482,3551.692 1282.622,3337.577 1173.524,3338.791 1166.677,3557.469 " />
<polygon stroke="black" stroke-width="1" fill="rgb(204, 204, 204)" fill-opacity="0.25" points="1166.677,3557.469 1173.524,3338.791 1068.180,3326.837 1056.515,3543.835 " />
<polygon stroke="black" stroke-width="1" fill="rgb(204, 204, 204)" fill-opacity="0.25" points="1171.226,3764.558 1166.677,3557.469 1056.515,3543.835 1062.989,3757.197 " />
<polygon stroke="black" stroke-width="1" fill="rgb(204, 204, 204)" fill-opacity="0.25" points="1302.590,4050.750 1291.002,3918.541 1186.823,3941.045 1197.184,4073.633 " />
<polygon stroke="black" stroke-width="1" fill="rgb(204, 204, 204)" fill-opacity="0.25" points="1291.002,3918.541 1278.034,3749.618 1171.226,3764.558 1186.823,3941.045 " />
<polygon stroke="black" stroke-width="1" fill="rgb(204, 204, 204)" fill-opacity="0.25" points="1186.823,3941.045 1171.226,3764.558 1062.989,3757.197 1083.021,3938.553 " />
<polygon stroke="black" stroke-width="1" fill="rgb(204, 204, 204)" fill-opacity="0.25" points="1197.184,4073.633 1186.823,3941.045 1083.021,3938.553 1098.502,4075.862 " />
<polygon stroke="black" stroke-width="1" fill="rgb(204, 204, 204)" fill-opacity="0.25" points="2262.692,2957.215 2413.549,2914.937 2477.872,2635.401 2303.391,2693.875 " />
<polygon stroke="black" stroke-width="1" fill="rgb(204, 204, 204)" fill-opacity="0.25" points="2413.549,2914.937 2572.346,2878.020 2660.756,2575.892 2477.872,2635.401 " />
<polygon stroke="black" stroke-width="1" fill="rgb(204, 204, 204)" fill-opacity="0.25" points="2477.872,2635.401 2660.756,2575.892 2762.817,2227.860 2564.054,2315.870 " />
<polygon stroke="black" stroke-width="1" fill="rgb(204, 204, 204)" fill-opacity="0.25" points="2303.391,2693.875 2477.872,2635.401 2564.054,2315.870 2367.269,2400.765 " />
<polygon stroke="black" stroke-width="1" fill="rgb(204, 204, 204)" fill-opacity="0.25" points="2367.269,2400.765 2564.054,2315.870 2655.570,1969.174 2450.162,2089.069 " />
<polygon stroke="black" stroke-width="1" fill="rgb(204, 204, 204)" fill-opacity="0.25" points="2564.054,2315.870 2762.817,2227.860 2845.069,1857.488 2655.570,1969.174 " />
<polygon stroke="black" stroke-width="1" fill="rgb(204, 204, 204)" fill-opacity="0.25" points="2655.570,1969.174 2845.069,1857.488 2912.407,1497.927 2726.548,1627.106 " />
<polygon stroke="black" stroke-width="1" fill="rgb(204, 204, 204)" fill-opacity="0.25" points="2450.162,2089.069 2655.570,1969.174 2726.548,1627.106 2526.469,1772.702 " />
<polygon stroke="black" stroke-width="1" fill="rgb(204, 204, 204)" fill-opacity="0.25" points="2262.692,2957.215 2303.391,2693.875 2144.754,2756.330 2122.465,3012.101 " />
<polygon stroke="black" stroke-width="1" fill="rgb(204, 204, 204)" fill-opacity="0.25" points="2303.391,2693.875 2367.269,2400.765 2187.976,2478.913 2144.754,2756.330 " />
<polygon stroke="black" stroke-width="1" fill="rgb(204, 204, 204)" fill-opacity="0.25" points="2144.754,2756.330 2187.976,2478.913 2029.127,2555.514 1999.034,2827.785 " />
<polygon stroke="black" stroke-width="1" fill="rgb(204, 204, 204)" fill-opacity="0.25" points="2122.465,3012.101 2144.754,2756.330 1999.034,2827.785 1989.484,3073.723 " />
<polygon stroke="black" stroke-width="1" fill="rgb(204, 204, 204)" fill-opacity="0.25" points="2367.269,2400.765 2450.162,2089.069 2256.192,2196.072 2187.976,2478.913 " />
<polygon stroke="black" stroke-width="1" fill="rgb(204, 204, 204)" fill-opacity="0.25" points="2450.162,2089.069 2526.469,1772.702 2326.237,1915.959 2256.192,2196.072 " />
<polygon stroke="black" stroke-width="1" fill="rgb(204, 204, 204)" fill-opacity="0.25" points="2256.192,2196.072 2326.237,1915.959 2147.096,2033.868 2084.516,2288.385 " />
<polygon stroke="black" stroke-width="1" fill="rgb(204, 204, 204)" fill-opacity="0.25" points="2187.976,2478.913 2256.192,2196.072 2084.516,2288.385 2029.127,2555.514 " />
<polygon stroke="black" stroke-width="1" fill="rgb(204, 204, 204)" fill-opacity="0.25" points="1886.378,2634.833 1935.697,2372.772 1801.232,2450.559 1755.181,2709.306 " />
<polygon stroke="black" stroke-width="1" fill="rgb(204, 204, 204)" fill-opacity="0.25" points="1935.697,2372.772 1992.182,2129.645 1856.438,2210.961 1801.232,2450.559 " />
<polygon stroke="black" stroke-width="1" fill="rgb(204, 204, 204)" fill-opacity="0.25" points="1675.789,2518.906 1731.462,2280.174 1612.771,2336.770 1556.123,2574.133 " />
<polygon stroke="black" stroke-width="1" fill="rgb(204, 204, 204)" fill-opacity="0.25" points="1631.836,2772.707 1675.789,2518.906 1556.123,2574.133 1514.431,2822.319 " />
<polygon stroke="black" stroke-width="1" fill="rgb(204, 204, 204)" fill-opacity="0.25" points="1863.038,3135.714 1864.470,2900.352 1738.558,2966.968 1741.267,3192.911 " />
<polygon stroke="black" stroke-width="1" fill="rgb(204, 204, 204)" fill-opacity="0.25" points="1864.470,2900.352 1886.378,2634.833 1755.181,2709.306 1738.558,2966.968 " />
<polygon stroke="black" stroke-width="1" fill="rgb(204, 204, 204)" fill-opacity="0.25" points="1618.680,3022.379 1631.836,2772.707 1514.431,2822.319 1503.408,3065.107 " />
<polygon stroke="black" stroke-width="1" fill="rgb(204, 204, 204)" fill-opacity="0.25" points="1623.524,3244.720 1618.680,3022.379 1503.408,3065.107 1508.269,3289.177 " />
<polygon stroke="black" stroke-width="1" fill="rgb(204, 204, 204)" fill-opacity="0.25" points="1731.462,2280.174 1856.438,2210.961 1903.823,1991.970 1779.484,2061.930 " />
<polygon stroke="black" stroke-width="1" fill="rgb(204, 204, 204)" fill-opacity="0.25" points="1992.182,2129.645 2147.096,2033.868 2202.531,1788.633 2042.770,1903.511 " />
<polygon stroke="black" stroke-width="1" fill="rgb(204, 204, 204)" fill-opacity="0.25" points="2042.770,1903.511 2202.531,1788.633 2247.276,1548.882 2084.501,1685.886 " />
<polygon stroke="black" stroke-width="1" fill="rgb(204, 204, 204)" fill-opacity="0.25" points="1779.484,2061.930 1903.823,1991.970 1943.243,1786.282 1817.021,1859.764 " />
<polygon stroke="black" stroke-width="1" fill="rgb(204, 204, 204)" fill-opacity="0.25" points="2147.096,2033.868 2326.237,1915.959 2388.095,1639.348 2202.531,1788.633 " />
<polygon stroke="black" stroke-width="1" fill="rgb(204, 204, 204)" fill-opacity="0.25" points="2326.237,1915.959 2526.469,1772.702 2595.791,1468.547 2388.095,1639.348 " />
<polygon stroke="black" stroke-width="1" fill="rgb(204, 204, 204)" fill-opacity="0.25" points="2388.095,1639.348 2595.791,1468.547 2663.210,1187.580 2441.450,1374.598 " />
<polygon stroke="black" stroke-width="1" fill="rgb(204, 204, 204)" fill-opacity="0.25" points="2202.531,1788.633 2388.095,1639.348 2441.450,1374.598 2247.276,1548.882 " />
<polygon stroke="black" stroke-width="1" fill="rgb(204, 204, 204)" fill-opacity="0.25" points="2247.276,1548.882 2441.450,1374.598 2472.484,1135.823 2271.784,1323.683 " />
<polygon stroke="black" stroke-width="1" fill="rgb(204, 204, 204)" fill-opacity="0.25" points="2441.450,1374.598 2663.210,1187.580 2714.480,923.520 2472.484,1135.823 " />
<polygon stroke="black" stroke-width="1" fill="rgb(204, 204, 204)" fill-opacity="0.25" points="2472.484,1135.823 2714.480,923.520 2738.777,657.607 2469.708,932.385 " />
<polygon stroke="black" stroke-width="1" fill="rgb(204, 204, 204)" fill-opacity="0.25" points="2271.784,1323.683 2472.484,1135.823 2469.708,932.385 2270.176,1126.433 " />
<polygon stroke="black" stroke-width="1" fill="rgb(204, 204, 204)" fill-opacity="0.25" points="1817.021,1859.764 1943.243,1786.282 1971.355,1586.178 1847.250,1666.169 " />
<polygon stroke="black" stroke-width="1" fill="rgb(204, 204, 204)" fill-opacity="0.25" points="2084.501,1685.886 2247.276,1548.882 2271.784,1323.683 2109.401,1474.180 " />
<polygon stroke="black" stroke-width="1" fill="rgb(204, 204, 204)" fill-opacity="0.25" points="2109.401,1474.180 2271.784,1323.683 2270.176,1126.433 2113.028,1276.476 " />
<polygon stroke="black" stroke-width="1" fill="rgb(204, 204, 204)" fill-opacity="0.25" points="1847.250,1666.169 1971.355,1586.178 1982.168,1391.271 1865.633,1475.694 " />
<polygon stroke="black" stroke-width="1" fill="rgb(204, 204, 204)" fill-opacity="0.25" points="3264.496,464.214 3042.211,493.847 2979.191,755.117 3198.187,681.406 " />
<polygon stroke="black" stroke-width="1" fill="rgb(204, 204, 204)" fill-opacity="0.25" points="3042.211,493.847 2738.777,657.607 2714.480,923.520 2979.191,755.117 " />
<polygon stroke="black" stroke-width="1" fill="rgb(204, 204, 204)" fill-opacity="0.25" points="2979.191,755.117 2714.480,923.520 2663.210,1187.580 2894.112,1019.977 " />
<polygon stroke="black" stroke-width="1" fill="rgb(204, 204, 204)" fill-opacity="0.25" points="3198.187,681.406 2979.191,755.117 2894.112,1019.977 3108.418,909.574 " />
<polygon stroke="black" stroke-width="1" fill="rgb(204, 204, 204)" fill-opacity="0.25" points="3108.418,909.574 2894.112,1019.977 2803.975,1309.671 3001.590,1172.190 " />
<polygon stroke="black" stroke-width="1" fill="rgb(204, 204, 204)" fill-opacity="0.25" points="2894.112,1019.977 2663.210,1187.580 2595.791,1468.547 2803.975,1309.671 " />
<polygon stroke="black" stroke-width="1" fill="rgb(204, 204, 204)" fill-opacity="0.25" points="2803.975,1309.671 2595.791,1468.547 2526.469,1772.702 2726.548,1627.106 " />
<polygon stroke="black" stroke-width="1" fill="rgb(204, 204, 204)" fill-opacity="0.25" points="3001.590,1172.190 2803.975,1309.671 2726.548,1627.106 2912.407,1497.927 " />
<polygon stroke="black" stroke-width="1" fill="rgb(204, 204, 204)" fill-opacity="0.25" points="1698.552,3865.077 1830.476,3793.048 1790.569,3677.469 1662.067,3743.255 " />
<polygon stroke="black" stroke-width="1" fill="rgb(204, 204, 204)" fill-opacity="0.25" points="1950.667,3726.752 2057.510,3665.511 2022.427,3563.962 1911.452,3618.539 " />
<polygon stroke="black" stroke-width="1" fill="rgb(204, 204, 204)" fill-opacity="0.25" points="1911.452,3618.539 2022.427,3563.962 1999.725,3436.159 1884.278,3488.005 " />
<polygon stroke="black" stroke-width="1" fill="rgb(204, 204, 204)" fill-opacity="0.25" points="1662.067,3743.255 1790.569,3677.469 1763.495,3543.222 1640.049,3602.684 " />
<polygon stroke="black" stroke-width="1" fill="rgb(204, 204, 204)" fill-opacity="0.25" points="2057.510,3665.511 2146.196,3612.424 2122.189,3519.164 2022.427,3563.962 " />
<polygon stroke="black" stroke-width="1" fill="rgb(204, 204, 204)" fill-opacity="0.25" points="2146.196,3612.424 2207.009,3572.163 2211.528,3490.746 2122.189,3519.164 " />
<polygon stroke="black" stroke-width="1" fill="rgb(204, 204, 204)" fill-opacity="0.25" points="2122.189,3519.164 2211.528,3490.746 2218.993,3359.787 2110.535,3391.480 " />
<polygon stroke="black" stroke-width="1" fill="rgb(204, 204, 204)" fill-opacity="0.25" points="2022.427,3563.962 2122.189,3519.164 2110.535,3391.480 1999.725,3436.159 " />
<polygon stroke="black" stroke-width="1" fill="rgb(204, 204, 204)" fill-opacity="0.25" points="1999.725,3436.159 2110.535,3391.480 2111.286,3226.032 1989.700,3275.704 " />
<polygon stroke="black" stroke-width="1" fill="rgb(204, 204, 204)" fill-opacity="0.25" points="2110.535,3391.480 2218.993,3359.787 2235.511,3183.333 2111.286,3226.032 " />
<polygon stroke="black" stroke-width="1" fill="rgb(204, 204, 204)" fill-opacity="0.25" points="2111.286,3226.032 2235.511,3183.333 2262.692,2957.215 2122.465,3012.101 " />
<polygon stroke="black" stroke-width="1" fill="rgb(204, 204, 204)" fill-opacity="0.25" points="1989.700,3275.704 2111.286,3226.032 2122.465,3012.101 1989.484,3073.723 " />
<polygon stroke="black" stroke-width="1" fill="rgb(204, 204, 204)" fill-opacity="0.25" points="1640.049,3602.684 1763.495,3543.222 1749.622,3382.916 1630.769,3437.157 " />
<polygon stroke="black" stroke-width="1" fill="rgb(204, 204, 204)" fill-opacity="0.25" points="1884.278,3488.005 1999.725,3436.159 1989.700,3275.704 1869.571,3329.142 " />
<polygon stroke="black" stroke-width="1" fill="rgb(204, 204, 204)" fill-opacity="0.25" points="1869.571,3329.142 1989.700,3275.704 1989.484,3073.723 1863.038,3135.714 " />
<polygon stroke="black" stroke-width="1" fill="rgb(204, 204, 204)" fill-opacity="0.25" points="1630.769,3437.157 1749.622,3382.916 1741.267,3192.911 1623.524,3244.720 " />
<polygon stroke="black" stroke-width="1" fill="rgb(204, 204, 204)" fill-opacity="0.25" points="2262.692,2957.215 2235.511,3183.333 2365.181,3152.844 2413.549,2914.937 " />
<polygon stroke="black" stroke-width="1" fill="rgb(204, 204, 204)" fill-opacity="0.25" points="2235.511,3183.333 2218.993,3359.787 2329.290,3344.185 2365.181,3152.844 " />
<polygon stroke="black" stroke-width="1" fill="rgb(204, 204, 204)" fill-opacity="0.25" points="2365.181,3152.844 2329.290,3344.185 2446.492,3341.723 2500.802,3133.674 " />
<polygon stroke="black" stroke-width="1" fill="rgb(204, 204, 204)" fill-opacity="0.25" points="2413.549,2914.937 2365.181,3152.844 2500.802,3133.674 2572.346,2878.020 " />
<polygon stroke="black" stroke-width="1" fill="rgb(204, 204, 204)" fill-opacity="0.25" points="2218.993,3359.787 2211.528,3490.746 2299.838,3490.240 2329.290,3344.185 " />
<polygon stroke="black" stroke-width="1" fill="rgb(204, 204, 204)" fill-opacity="0.25" points="2211.528,3490.746 2207.009,3572.163 2262.274,3597.009 2299.838,3490.240 " />
<polygon stroke="black" stroke-width="1" fill="rgb(204, 204, 204)" fill-opacity="0.25" points="2299.838,3490.240 2262.274,3597.009 2344.353,3626.963 2399.592,3502.726 " />
<polygon stroke="black" stroke-width="1" fill="rgb(204, 204, 204)" fill-opacity="0.25" points="2329.290,3344.185 2299.838,3490.240 2399.592,3502.726 2446.492,3341.723 " />
<polygon stroke="black" stroke-width="1" fill="rgb(204, 204, 204)" fill-opacity="0.25" points="2738.777,657.607 3042.211,493.847 3145.433,286.866 2889.650,382.064 " />
<polygon stroke="black" stroke-width="1" fill="rgb(204, 204, 204)" fill-opacity="0.25" points="3042.211,493.847 3264.496,464.214 3318.109,239.032 3145.433,286.866 " />
<polygon stroke="black" stroke-width="1" fill="rgb(204, 204, 204)" fill-opacity="0.25" points="3145.433,286.866 3318.109,239.032 3347.297,0.000 3208.709,72.998 " />
<polygon stroke="black" stroke-width="1" fill="rgb(204, 204, 204)" fill-opacity="0.25" points="2889.650,382.064 3145.433,286.866 3208.709,72.998 3011.393,199.821 " />
<polygon stroke="black" stroke-width="1" fill="rgb(204, 204, 204)" fill-opacity="0.25" points="1785.843,840.333 1713.572,876.207 1705.442,1042.134 1783.570,1002.884 " />
<polygon stroke="black" stroke-width="1" fill="rgb(204, 204, 204)" fill-opacity="0.25" points="1713.572,876.207 1645.267,901.247 1630.715,1069.030 1705.442,1042.134 " />
<polygon stroke="black" stroke-width="1" fill="rgb(204, 204, 204)" fill-opacity="0.25" points="1705.442,1042.134 1630.715,1069.030 1611.193,1242.540 1693.937,1214.760 " />
<polygon stroke="black" stroke-width="1" fill="rgb(204, 204, 204)" fill-opacity="0.25" points="1783.570,1002.884 1705.442,1042.134 1693.937,1214.760 1779.820,1172.939 " />
<polygon stroke="black" stroke-width="1" fill="rgb(204, 204, 204)" fill-opacity="0.25" points="1645.267,901.247 1580.035,916.339 1558.899,1085.462 1630.715,1069.030 " />
<polygon stroke="black" stroke-width="1" fill="rgb(204, 204, 204)" fill-opacity="0.25" points="1580.035,916.339 1518.149,923.566 1491.073,1094.204 1558.899,1085.462 " />
<polygon stroke="black" stroke-width="1" fill="rgb(204, 204, 204)" fill-opacity="0.25" points="1558.899,1085.462 1491.073,1094.204 1456.293,1267.898 1531.510,1259.071 " />
<polygon stroke="black" stroke-width="1" fill="rgb(204, 204, 204)" fill-opacity="0.25" points="1630.715,1069.030 1558.899,1085.462 1531.510,1259.071 1611.193,1242.540 " />
<polygon stroke="black" stroke-width="1" fill="rgb(204, 204, 204)" fill-opacity="0.25" points="1611.193,1242.540 1531.510,1259.071 1498.087,1437.353 1585.658,1421.096 " />
<polygon stroke="black" stroke-width="1" fill="rgb(204, 204, 204)" fill-opacity="0.25" points="1531.510,1259.071 1456.293,1267.898 1415.481,1445.984 1498.087,1437.353 " />
<polygon stroke="black" stroke-width="1" fill="rgb(204, 204, 204)" fill-opacity="0.25" points="1498.087,1437.353 1415.481,1445.984 1372.229,1627.805 1460.416,1618.664 " />
<polygon stroke="black" stroke-width="1" fill="rgb(204, 204, 204)" fill-opacity="0.25" points="1585.658,1421.096 1498.087,1437.353 1460.416,1618.664 1554.567,1602.611 " />
<polygon stroke="black" stroke-width="1" fill="rgb(204, 204, 204)" fill-opacity="0.25" points="1779.820,1172.939 1693.937,1214.760 1676.966,1393.577 1771.880,1351.253 " />
<polygon stroke="black" stroke-width="1" fill="rgb(204, 204, 204)" fill-opacity="0.25" points="1693.937,1214.760 1611.193,1242.540 1585.658,1421.096 1676.966,1393.577 " />
<polygon stroke="black" stroke-width="1" fill="rgb(204, 204, 204)" fill-opacity="0.25" points="1676.966,1393.577 1585.658,1421.096 1554.567,1602.611 1653.570,1576.214 " />
<polygon stroke="black" stroke-width="1" fill="rgb(204, 204, 204)" fill-opacity="0.25" points="1771.880,1351.253 1676.966,1393.577 1653.570,1576.214 1757.008,1535.534 " />
<polygon stroke="black" stroke-width="1" fill="rgb(204, 204, 204)" fill-opacity="0.25" points="2738.777,657.607 2889.650,382.064 2726.055,433.514 2579.337,615.564 " />
<polygon stroke="black" stroke-width="1" fill="rgb(204, 204, 204)" fill-opacity="0.25" points="2889.650,382.064 3011.393,199.821 2848.621,286.519 2726.055,433.514 " />
<polygon stroke="black" stroke-width="1" fill="rgb(204, 204, 204)" fill-opacity="0.25" points="2726.055,433.514 2848.621,286.519 2723.962,327.880 2607.822,451.984 " />
<polygon stroke="black" stroke-width="1" fill="rgb(204, 204, 204)" fill-opacity="0.25" points="2579.337,615.564 2726.055,433.514 2607.822,451.984 2474.563,580.749 " />
<polygon stroke="black" stroke-width="1" fill="rgb(204, 204, 204)" fill-opacity="0.25" points="2474.563,580.749 2607.822,451.984 2505.094,444.319 2397.368,540.942 " />
<polygon stroke="black" stroke-width="1" fill="rgb(204, 204, 204)" fill-opacity="0.25" points="2607.822,451.984 2723.962,327.880 2610.021,334.556 2505.094,444.319 " />
<polygon stroke="black" stroke-width="1" fill="rgb(204, 204, 204)" fill-opacity="0.25" points="2505.094,444.319 2610.021,334.556 2489.398,326.544 2404.638,431.507 " />
<polygon stroke="black" stroke-width="1" fill="rgb(204, 204, 204)" fill-opacity="0.25" points="2397.368,540.942 2505.094,444.319 2404.638,431.507 2347.456,505.201 " />
<polygon stroke="black" stroke-width="1" fill="rgb(204, 204, 204)" fill-opacity="0.25" points="1864.033,793.749 1950.683,737.186 1952.505,587.976 1865.870,637.661 " />
<polygon stroke="black" stroke-width="1" fill="rgb(204, 204, 204)" fill-opacity="0.25" points="2047.251,672.871 2153.284,606.338 2166.172,482.970 2052.187,533.686 " />
<polygon stroke="black" stroke-width="1" fill="rgb(204, 204, 204)" fill-opacity="0.25" points="2052.187,533.686 2166.172,482.970 2220.845,357.024 2087.106,391.158 " />
<polygon stroke="black" stroke-width="1" fill="rgb(204, 204, 204)" fill-opacity="0.25" points="1865.870,637.661 1952.505,587.976 1972.368,432.715 1878.511,475.263 " />
<polygon stroke="black" stroke-width="1" fill="rgb(204, 204, 204)" fill-opacity="0.25" points="2153.284,606.338 2260.671,545.983 2289.462,446.435 2166.172,482.970 " />
<polygon stroke="black" stroke-width="1" fill="rgb(204, 204, 204)" fill-opacity="0.25" points="2260.671,545.983 2347.456,505.201 2404.638,431.507 2289.462,446.435 " />
<polygon stroke="black" stroke-width="1" fill="rgb(204, 204, 204)" fill-opacity="0.25" points="2289.462,446.435 2404.638,431.507 2489.398,326.544 2359.882,334.900 " />
<polygon stroke="black" stroke-width="1" fill="rgb(204, 204, 204)" fill-opacity="0.25" points="2166.172,482.970 2289.462,446.435 2359.882,334.900 2220.845,357.024 " />
<polygon stroke="black" stroke-width="1" fill="rgb(204, 204, 204)" fill-opacity="0.25" points="2738.777,657.607 2579.337,615.564 2402.390,808.891 2469.708,932.385 " />
<polygon stroke="black" stroke-width="1" fill="rgb(204, 204, 204)" fill-opacity="0.25" points="2579.337,615.564 2474.563,580.749 2335.851,715.488 2402.390,808.891 " />
<polygon stroke="black" stroke-width="1" fill="rgb(204, 204, 204)" fill-opacity="0.25" points="2402.390,808.891 2335.851,715.488 2200.856,839.105 2239.437,969.325 " />
<polygon stroke="black" stroke-width="1" fill="rgb(204, 204, 204)" fill-opacity="0.25" points="2469.708,932.385 2402.390,808.891 2239.437,969.325 2270.176,1126.433 " />
<polygon stroke="black" stroke-width="1" fill="rgb(204, 204, 204)" fill-opacity="0.25" points="2474.563,580.749 2397.368,540.942 2285.079,631.333 2335.851,715.488 " />
<polygon stroke="black" stroke-width="1" fill="rgb(204, 204, 204)" fill-opacity="0.25" points="2397.368,540.942 2347.456,505.201 2260.671,545.983 2285.079,631.333 " />
<polygon stroke="black" stroke-width="1" fill="rgb(204, 204, 204)" fill-opacity="0.25" points="2285.079,631.333 2260.671,545.983 2153.284,606.338 2169.080,721.936 " />
<polygon stroke="black" stroke-width="1" fill="rgb(204, 204, 204)" fill-opacity="0.25" points="2335.851,715.488 2285.079,631.333 2169.080,721.936 2200.856,839.105 " />
<polygon stroke="black" stroke-width="1" fill="rgb(204, 204, 204)" fill-opacity="0.25" points="2077.330,947.145 2058.020,807.654 1957.296,884.720 1967.902,1039.557 " />
<polygon stroke="black" stroke-width="1" fill="rgb(204, 204, 204)" fill-opacity="0.25" points="2058.020,807.654 2047.251,672.871 1950.683,737.186 1957.296,884.720 " />
<polygon stroke="black" stroke-width="1" fill="rgb(204, 204, 204)" fill-opacity="0.25" points="1866.654,950.353 1864.033,793.749 1785.843,840.333 1783.570,1002.884 " />
<polygon stroke="black" stroke-width="1" fill="rgb(204, 204, 204)" fill-opacity="0.25" points="1870.165,1114.907 1866.654,950.353 1783.570,1002.884 1779.820,1172.939 " />
<polygon stroke="black" stroke-width="1" fill="rgb(204, 204, 204)" fill-opacity="0.25" points="2113.028,1276.476 2099.045,1101.221 1978.567,1207.918 1982.168,1391.271 " />
<polygon stroke="black" stroke-width="1" fill="rgb(204, 204, 204)" fill-opacity="0.25" points="2099.045,1101.221 2077.330,947.145 1967.902,1039.557 1978.567,1207.918 " />
<polygon stroke="black" stroke-width="1" fill="rgb(204, 204, 204)" fill-opacity="0.25" points="1871.421,1290.445 1870.165,1114.907 1779.820,1172.939 1771.880,1351.253 " />
<polygon stroke="black" stroke-width="1" fill="rgb(204, 204, 204)" fill-opacity="0.25" points="1865.633,1475.694 1871.421,1290.445 1771.880,1351.253 1757.008,1535.534 " />
<polygon stroke="black" stroke-width="1" fill="rgb(204, 204, 204)" fill-opacity="0.25" points="1646.140,4138.114 1596.494,4047.860 1441.671,4111.471 1466.747,4200.985 " />
<polygon stroke="black" stroke-width="1" fill="rgb(204, 204, 204)" fill-opacity="0.25" points="1596.494,4047.860 1560.334,3940.391 1423.254,4006.851 1441.671,4111.471 " />
<polygon stroke="black" stroke-width="1" fill="rgb(204, 204, 204)" fill-opacity="0.25" points="1441.671,4111.471 1423.254,4006.851 1302.590,4050.750 1309.711,4152.232 " />
<polygon stroke="black" stroke-width="1" fill="rgb(204, 204, 204)" fill-opacity="0.25" points="1466.747,4200.985 1441.671,4111.471 1309.711,4152.232 1317.766,4239.448 " />
<polygon stroke="black" stroke-width="1" fill="rgb(204, 204, 204)" fill-opacity="0.25" points="1317.766,4239.448 1309.711,4152.232 1199.682,4174.256 1199.264,4260.108 " />
<polygon stroke="black" stroke-width="1" fill="rgb(204, 204, 204)" fill-opacity="0.25" points="1309.711,4152.232 1302.590,4050.750 1197.184,4073.633 1199.682,4174.256 " />
<polygon stroke="black" stroke-width="1" fill="rgb(204, 204, 204)" fill-opacity="0.25" points="1199.682,4174.256 1197.184,4073.633 1098.502,4075.862 1102.874,4179.514 " />
<polygon stroke="black" stroke-width="1" fill="rgb(204, 204, 204)" fill-opacity="0.25" points="1199.264,4260.108 1199.682,4174.256 1102.874,4179.514 1101.731,4267.000 " />
<polygon stroke="black" stroke-width="1" fill="rgb(204, 204, 204)" fill-opacity="0.25" points="2344.353,3626.963 2262.274,3597.009 2197.117,3674.464 2269.966,3723.726 " />
<polygon stroke="black" stroke-width="1" fill="rgb(204, 204, 204)" fill-opacity="0.25" points="2262.274,3597.009 2207.009,3572.163 2146.196,3612.424 2197.117,3674.464 " />
<polygon stroke="black" stroke-width="1" fill="rgb(204, 204, 204)" fill-opacity="0.25" points="2197.117,3674.464 2146.196,3612.424 2057.510,3665.511 2109.313,3745.389 " />
<polygon stroke="black" stroke-width="1" fill="rgb(204, 204, 204)" fill-opacity="0.25" points="2269.966,3723.726 2197.117,3674.464 2109.313,3745.389 2178.099,3808.758 " />
<polygon stroke="black" stroke-width="1" fill="rgb(204, 204, 204)" fill-opacity="0.25" points="2071.587,3890.218 2003.692,3817.190 1882.953,3892.764 1949.736,3973.706 " />
<polygon stroke="black" stroke-width="1" fill="rgb(204, 204, 204)" fill-opacity="0.25" points="2003.692,3817.190 1950.667,3726.752 1830.476,3793.048 1882.953,3892.764 " />
<polygon stroke="black" stroke-width="1" fill="rgb(204, 204, 204)" fill-opacity="0.25" points="1748.780,3972.439 1698.552,3865.077 1560.334,3940.391 1596.494,4047.860 " />
<polygon stroke="black" stroke-width="1" fill="rgb(204, 204, 204)" fill-opacity="0.25" points="1812.709,4059.294 1748.780,3972.439 1596.494,4047.860 1646.140,4138.114 " />
<polygon stroke="black" stroke-width="1" fill="rgb(204, 204, 204)" fill-opacity="0.25" points="2109.313,3745.389 2057.510,3665.511 1950.667,3726.752 2003.692,3817.190 " />
<polygon stroke="black" stroke-width="1" fill="rgb(204, 204, 204)" fill-opacity="0.25" points="2178.099,3808.758 2109.313,3745.389 2003.692,3817.190 2071.587,3890.218 " />
<polygon stroke="black" stroke-width="1" fill="rgb(204, 204, 204)" fill-opacity="0.25" points="2239.437,969.325 2200.856,839.105 2077.330,947.145 2099.045,1101.221 " />
<polygon stroke="black" stroke-width="1" fill="rgb(204, 204, 204)" fill-opacity="0.25" points="2270.176,1126.433 2239.437,969.325 2099.045,1101.221 2113.028,1276.476 " />
<polygon stroke="black" stroke-width="1" fill="rgb(204, 204, 204)" fill-opacity="0.25" points="2169.080,721.936 2153.284,606.338 2047.251,672.871 2058.020,807.654 " />
<polygon stroke="black" stroke-width="1" fill="rgb(204, 204, 204)" fill-opacity="0.25" points="2200.856,839.105 2169.080,721.936 2058.020,807.654 2077.330,947.145 " />
<polygon stroke="black" stroke-width="1" fill="rgb(204, 204, 204)" fill-opacity="0.25" points="1952.505,587.976 2052.187,533.686 2087.106,391.158 1972.368,432.715 " />
<polygon stroke="black" stroke-width="1" fill="rgb(204, 204, 204)" fill-opacity="0.25" points="1950.683,737.186 2047.251,672.871 2052.187,533.686 1952.505,587.976 " />
<polygon stroke="black" stroke-width="1" fill="rgb(204, 204, 204)" fill-opacity="0.25" points="1749.622,3382.916 1869.571,3329.142 1863.038,3135.714 1741.267,3192.911 " />
<polygon stroke="black" stroke-width="1" fill="rgb(204, 204, 204)" fill-opacity="0.25" points="1763.495,3543.222 1884.278,3488.005 1869.571,3329.142 1749.622,3382.916 " />
<polygon stroke="black" stroke-width="1" fill="rgb(204, 204, 204)" fill-opacity="0.25" points="1790.569,3677.469 1911.452,3618.539 1884.278,3488.005 1763.495,3543.222 " />
<polygon stroke="black" stroke-width="1" fill="rgb(204, 204, 204)" fill-opacity="0.25" points="1830.476,3793.048 1950.667,3726.752 1911.452,3618.539 1790.569,3677.469 " />
<polygon stroke="black" stroke-width="1" fill="rgb(204, 204, 204)" fill-opacity="0.25" points="1971.355,1586.178 2109.401,1474.180 2113.028,1276.476 1982.168,1391.271 " />
<polygon stroke="black" stroke-width="1" fill="rgb(204, 204, 204)" fill-opacity="0.25" points="1943.243,1786.282 2084.501,1685.886 2109.401,1474.180 1971.355,1586.178 " />
<polygon stroke="black" stroke-width="1" fill="rgb(204, 204, 204)" fill-opacity="0.25" points="1903.823,1991.970 2042.770,1903.511 2084.501,1685.886 1943.243,1786.282 " />
<polygon stroke="black" stroke-width="1" fill="rgb(204, 204, 204)" fill-opacity="0.25" points="1856.438,2210.961 1992.182,2129.645 2042.770,1903.511 1903.823,1991.970 " />
<polygon stroke="black" stroke-width="1" fill="rgb(204, 204, 204)" fill-opacity="0.25" points="1999.034,2827.785 2029.127,2555.514 1886.378,2634.833 1864.470,2900.352 " />
<polygon stroke="black" stroke-width="1" fill="rgb(204, 204, 204)" fill-opacity="0.25" points="1989.484,3073.723 1999.034,2827.785 1864.470,2900.352 1863.038,3135.714 " />
<polygon stroke="black" stroke-width="1" fill="rgb(204, 204, 204)" fill-opacity="0.25" points="2084.516,2288.385 2147.096,2033.868 1992.182,2129.645 1935.697,2372.772 " />
<polygon stroke="black" stroke-width="1" fill="rgb(204, 204, 204)" fill-opacity="0.25" points="2029.127,2555.514 2084.516,2288.385 1935.697,2372.772 1886.378,2634.833 " />
<polygon stroke="black" stroke-width="1" fill="rgb(204, 204, 204)" fill-opacity="0.25" points="1949.736,3973.706 1882.953,3892.764 1748.780,3972.439 1812.709,4059.294 " />
<polygon stroke="black" stroke-width="1" fill="rgb(204, 204, 204)" fill-opacity="0.25" points="1882.953,3892.764 1830.476,3793.048 1698.552,3865.077 1748.780,3972.439 " />
<polygon stroke="black" stroke-width="1" fill="rgb(204, 204, 204)" fill-opacity="0.25" points="1982.168,1391.271 1978.567,1207.918 1871.421,1290.445 1865.633,1475.694 " />
<polygon stroke="black" stroke-width="1" fill="rgb(204, 204, 204)" fill-opacity="0.25" points="1978.567,1207.918 1967.902,1039.557 1870.165,1114.907 1871.421,1290.445 " />
<polygon stroke="black" stroke-width="1" fill="rgb(204, 204, 204)" fill-opacity="0.25" points="1967.902,1039.557 1957.296,884.720 1866.654,950.353 1870.165,1114.907 " />
<polygon stroke="black" stroke-width="1" fill="rgb(204, 204, 204)" fill-opacity="0.25" points="1957.296,884.720 1950.683,737.186 1864.033,793.749 1866.654,950.353 " />
<polygon stroke="black" stroke-width="1" fill="rgb(204, 204, 204)" fill-opacity="0.25" points="1789.453,679.713 1865.870,637.661 1878.511,475.263 1799.431,512.731 " />
<polygon stroke="black" stroke-width="1" fill="rgb(204, 204, 204)" fill-opacity="0.25" points="1785.843,840.333 1864.033,793.749 1865.870,637.661 1789.453,679.713 " />
<polygon stroke="black" stroke-width="1" fill="rgb(204, 204, 204)" fill-opacity="0.25" points="1511.880,3487.232 1630.769,3437.157 1623.524,3244.720 1508.269,3289.177 " />
<polygon stroke="black" stroke-width="1" fill="rgb(204, 204, 204)" fill-opacity="0.25" points="1514.286,3660.484 1640.049,3602.684 1630.769,3437.157 1511.880,3487.232 " />
<polygon stroke="black" stroke-width="1" fill="rgb(204, 204, 204)" fill-opacity="0.25" points="1530.243,3810.749 1662.067,3743.255 1640.049,3602.684 1514.286,3660.484 " />
<polygon stroke="black" stroke-width="1" fill="rgb(204, 204, 204)" fill-opacity="0.25" points="1560.334,3940.391 1698.552,3865.077 1662.067,3743.255 1530.243,3810.749 " />
<polygon stroke="black" stroke-width="1" fill="rgb(204, 204, 204)" fill-opacity="0.25" points="1732.002,1722.390 1847.250,1666.169 1865.633,1475.694 1757.008,1535.534 " />
<polygon stroke="black" stroke-width="1" fill="rgb(204, 204, 204)" fill-opacity="0.25" points="1701.166,1914.353 1817.021,1859.764 1847.250,1666.169 1732.002,1722.390 " />
<polygon stroke="black" stroke-width="1" fill="rgb(204, 204, 204)" fill-opacity="0.25" points="1662.980,2117.111 1779.484,2061.930 1817.021,1859.764 1701.166,1914.353 " />
<polygon stroke="black" stroke-width="1" fill="rgb(204, 204, 204)" fill-opacity="0.25" points="1612.771,2336.770 1731.462,2280.174 1779.484,2061.930 1662.980,2117.111 " />
<polygon stroke="black" stroke-width="1" fill="rgb(204, 204, 204)" fill-opacity="0.25" points="1741.267,3192.911 1738.558,2966.968 1618.680,3022.379 1623.524,3244.720 " />
<polygon stroke="black" stroke-width="1" fill="rgb(204, 204, 204)" fill-opacity="0.25" points="1738.558,2966.968 1755.181,2709.306 1631.836,2772.707 1618.680,3022.379 " />
<polygon stroke="black" stroke-width="1" fill="rgb(204, 204, 204)" fill-opacity="0.25" points="1755.181,2709.306 1801.232,2450.559 1675.789,2518.906 1631.836,2772.707 " />
<polygon stroke="black" stroke-width="1" fill="rgb(204, 204, 204)" fill-opacity="0.25" points="1801.232,2450.559 1856.438,2210.961 1731.462,2280.174 1675.789,2518.906 " />
<polygon stroke="black" stroke-width="1" fill="rgb(204, 204, 204)" fill-opacity="0.25" points="617.171,3899.948 466.187,3755.112 447.910,3833.109 623.079,4003.881 " />
<polygon stroke="black" stroke-width="1" fill="rgb(204, 204, 204)" fill-opacity="0.25" points="604.583,3776.437 475.079,3658.036 466.187,3755.112 617.171,3899.948 " />
<polygon stroke="black" stroke-width="1" fill="rgb(204, 204, 204)" fill-opacity="0.25" points="1144.461,1421.736 1089.652,1389.994 1024.314,1570.175 1085.197,1605.114 " />
<polygon stroke="black" stroke-width="1" fill="rgb(204, 204, 204)" fill-opacity="0.25" points="1206.632,1247.632 1158.371,1223.038 1089.652,1389.994 1144.461,1421.736 " />
<polygon stroke="black" stroke-width="1" fill="rgb(204, 204, 204)" fill-opacity="0.25" points="1264.869,1076.584 1219.843,1057.714 1158.371,1223.038 1206.632,1247.632 " />
<polygon stroke="black" stroke-width="1" fill="rgb(204, 204, 204)" fill-opacity="0.25" points="1309.217,901.488 1264.119,885.872 1219.843,1057.714 1264.869,1076.584 " />
<polygon stroke="black" stroke-width="1" fill="rgb(204, 204, 204)" fill-opacity="0.25" points="1232.776,469.941 1238.221,682.893 1285.929,700.922 1287.004,489.013 " />
<polygon stroke="black" stroke-width="1" fill="rgb(204, 204, 204)" fill-opacity="0.25" points="1238.221,682.893 1220.966,863.979 1264.119,885.872 1285.929,700.922 " />
<polygon stroke="black" stroke-width="1" fill="rgb(204, 204, 204)" fill-opacity="0.25" points="517.495,3118.234 460.879,3252.799 543.328,3307.068 598.178,3166.346 " />
<polygon stroke="black" stroke-width="1" fill="rgb(204, 204, 204)" fill-opacity="0.25" points="460.879,3252.799 418.186,3365.176 505.793,3431.105 543.328,3307.068 " />
<polygon stroke="black" stroke-width="1" fill="rgb(204, 204, 204)" fill-opacity="0.25" points="418.186,3365.176 387.860,3465.737 485.309,3548.241 505.793,3431.105 " />
<polygon stroke="black" stroke-width="1" fill="rgb(204, 204, 204)" fill-opacity="0.25" points="387.860,3465.737 364.444,3555.907 475.079,3658.036 485.309,3548.241 " />
<polygon stroke="black" stroke-width="1" fill="rgb(204, 204, 204)" fill-opacity="0.25" points="962.270,1513.252 890.877,1702.397 963.570,1757.375 1024.314,1570.175 " />
<polygon stroke="black" stroke-width="1" fill="rgb(204, 204, 204)" fill-opacity="0.25" points="890.877,1702.397 832.134,1900.100 914.768,1952.585 963.570,1757.375 " />
<polygon stroke="black" stroke-width="1" fill="rgb(204, 204, 204)" fill-opacity="0.25" points="832.134,1900.100 788.951,2112.511 874.118,2164.785 914.768,1952.585 " />
<polygon stroke="black" stroke-width="1" fill="rgb(204, 204, 204)" fill-opacity="0.25" points="788.951,2112.511 748.176,2338.490 831.211,2391.445 874.118,2164.785 " />
<polygon stroke="black" stroke-width="1" fill="rgb(204, 204, 204)" fill-opacity="0.25" points="740.221,3036.416 660.898,2998.137 598.178,3166.346 682.678,3209.674 " />
<polygon stroke="black" stroke-width="1" fill="rgb(204, 204, 204)" fill-opacity="0.25" points="796.354,2851.406 721.117,2814.658 660.898,2998.137 740.221,3036.416 " />
<polygon stroke="black" stroke-width="1" fill="rgb(204, 204, 204)" fill-opacity="0.25" points="851.749,2649.535 779.527,2612.818 721.117,2814.658 796.354,2851.406 " />
<polygon stroke="black" stroke-width="1" fill="rgb(204, 204, 204)" fill-opacity="0.25" points="902.638,2429.186 831.211,2391.445 779.527,2612.818 851.749,2649.535 " />

</svg>
